HIERARCHY
ROOT hip
{
	OFFSET 0.000000 0.000000 0.000000 
	CHANNELS 6 Xposition Yposition Zposition Xrotation Zrotation Yrotation
	JOINT abdomen
	{
		OFFSET 0.000000 3.402643 0.000000 
		CHANNELS 3 Xrotation Zrotation Yrotation
		JOINT chest
		{
			OFFSET 0.000000 8.438565 -0.680529 
			CHANNELS 3 Xrotation Zrotation Yrotation
			JOINT neck
			{
				OFFSET 0.000000 10.207942 -0.272212 
				CHANNELS 3 Xrotation Zrotation Yrotation
				JOINT head
				{
					OFFSET 0.000000 3.130431 0.000000 
					CHANNELS 3 Xrotation Zrotation Yrotation
					End Site
					{
						OFFSET 0.000000 3.130435 0.000000 
					}
				}
			}
			JOINT lCollar
			{
				OFFSET 3.470700 6.669187 -0.816635 
				CHANNELS 3 Yrotation Zrotation Xrotation
				JOINT lShldr
				{
					OFFSET 3.198488 0.000000 0.000000 
					CHANNELS 3 Zrotation Yrotation Xrotation
					JOINT lForeArm
					{
						OFFSET 10.139888 0.000000 0.000000 
						CHANNELS 3 Yrotation Zrotation Xrotation
						JOINT lHand
						{
							OFFSET 8.370511 0.000000 0.000000 
							CHANNELS 3 Zrotation Yrotation Xrotation
							End Site
							{
								OFFSET 4.083176 0.000000 0.000000 
							}
						}
					}
				}
			}
			JOINT rCollar
			{
				OFFSET -3.470700 6.669187 -0.816635 
				CHANNELS 3 Yrotation Zrotation Xrotation
				JOINT rShldr
				{
					OFFSET -3.198488 0.000000 0.000000 
					CHANNELS 3 Zrotation Yrotation Xrotation
					JOINT rForeArm
					{
						OFFSET -10.139888 0.000000 0.000000 
						CHANNELS 3 Yrotation Zrotation Xrotation
						JOINT rHand
						{
							OFFSET -8.370511 0.000000 0.000000 
							CHANNELS 3 Zrotation Yrotation Xrotation
							End Site
							{
								OFFSET -4.083176 0.000000 0.000000 
							}
						}
					}
				}
			}
		}
	}
	JOINT lThigh
	{
		OFFSET 5.308129 -1.633274 1.361059 
		CHANNELS 3 Xrotation Zrotation Yrotation
		JOINT lShin
		{
			OFFSET -2.041588 -20.007561 0.000000 
			CHANNELS 3 Xrotation Zrotation Yrotation
			JOINT lFoot
			{
				OFFSET 0.000000 -19.190928 -1.224953 
				CHANNELS 3 Xrotation Yrotation Zrotation
				End Site
				{
					OFFSET 0.000000 -2.449906 4.627600 
				}
			}
		}
	}
	JOINT rThigh
	{
		OFFSET -5.308129 -1.633274 1.361059 
		CHANNELS 3 Xrotation Zrotation Yrotation
		JOINT rShin
		{
			OFFSET 2.041588 -20.007561 0.000000 
			CHANNELS 3 Xrotation Zrotation Yrotation
			JOINT rFoot
			{
				OFFSET 0.000000 -19.190928 -1.224953 
				CHANNELS 3 Xrotation Yrotation Zrotation
				End Site
				{
					OFFSET 0.000000 -2.449906 4.627600 
				}
			}
		}
	}
}
MOTION
Frames: 19
Frame Time: 0.033333
2.216684 52.175552 -2.561535 -14.716797 -14.492768 135.887512 29.830051 -17.218437 -4.888375 -19.560549 15.888671 -1.210938 51.063168 8.107644 2.471410 -42.939453 -1.025388 -9.951319 2.000000 -2.000000 0.000000 -81.376953 15.419922 -13.112636 -53.392002 -1.733268 -2.095862 11.311888 57.763653 2.267696 -2.000000 2.000000 0.000000 81.621094 -31.162109 1.742994 60.215008 1.453854 -2.337564 -30.250786 -57.895798 23.679420 -36.113350 12.607826 10.312895 44.129353 -3.890767 -3.567022 -2.932177 6.869467 -7.472910 -17.050934 1.923618 -12.985527 16.703442 5.317018 1.485532 -10.871593 -11.821773 1.622878 
4.277252 51.671364 -5.210722 -13.798828 -14.208985 134.880417 29.324284 -16.805714 -4.172974 -22.031250 10.087891 1.759524 51.063168 8.107644 2.471410 -39.589844 3.046875 -12.499483 2.000000 -2.000000 0.000000 -84.443359 22.636721 -19.234522 -51.809422 -1.888685 -2.077018 8.051570 59.674870 0.962925 -2.000000 2.000000 0.000000 78.818359 -31.347654 6.811327 62.854263 1.371215 -2.430362 -32.154297 -56.891209 24.816639 -39.751202 12.233801 10.589401 37.618992 -4.230268 -3.276051 -9.464043 6.979629 -5.829652 -12.817244 0.713418 -13.075212 18.264069 5.254906 1.591435 -13.852592 -9.715813 1.187872 
6.309321 51.056866 -7.787798 -12.871094 -13.916016 133.884369 28.628347 -16.636312 -3.370314 -23.769531 6.484375 4.072266 51.063168 8.107644 2.471410 -36.972660 6.064453 -14.580079 2.000000 -2.000000 0.000000 -89.052734 28.515625 -26.074221 -50.751011 -1.596862 -1.937310 5.406502 61.952324 -0.141737 -2.000000 2.000000 0.000000 77.138672 -31.865236 10.854219 65.669586 1.279389 -2.533472 -33.032921 -55.805443 25.058622 -42.830463 12.020923 10.514780 31.423258 -4.439229 -2.817724 -15.044265 5.922326 -4.301733 -8.503186 -0.282597 -13.820574 19.664711 5.028424 1.831675 -15.562731 -7.309400 2.013347 
8.452467 50.339962 -10.148469 -12.148438 -13.613280 132.898087 27.823149 -17.759909 -1.670143 -24.306643 6.142579 5.029296 51.063168 8.107644 2.471410 -35.537109 7.607421 -17.694017 2.000000 -2.000000 0.000000 -93.701172 32.597656 -31.621096 -50.222843 -1.614653 -1.906933 3.817937 63.195560 -1.014586 -2.000000 2.000000 0.000000 74.785156 -33.271484 13.525391 69.703682 0.958798 -2.571624 -33.835842 -54.561165 25.679472 -45.161678 11.131271 9.087219 26.709019 -4.760345 -2.476988 -18.450382 5.164868 -3.051522 -4.363931 -1.268581 -14.646775 21.252613 5.125382 1.680176 -15.602908 -5.374907 2.361319 
10.669671 49.575794 -12.241449 -11.210937 -13.115233 132.077850 26.944168 -19.460588 0.397097 -23.720703 7.880860 5.273438 51.063168 8.107644 2.471410 -34.941406 8.046876 -21.171875 2.000000 -2.000000 0.000000 -99.023438 37.265625 -36.962894 -51.973263 -1.619774 -1.994918 5.228800 63.230789 -0.204704 -2.000000 2.000000 0.000000 72.636719 -34.882813 15.951446 74.277122 0.799286 -2.688439 -34.585541 -53.364475 26.495564 -46.312016 9.510159 4.635070 24.050070 -4.848246 -2.224653 -16.251308 4.957163 -2.906933 0.233977 -1.713059 -15.707062 22.359388 4.771963 2.051403 -13.825868 -3.829134 1.144150 
9.696280 48.882523 -12.745458 -10.283202 -12.470703 131.228363 26.603178 -19.895212 1.221654 -23.330078 8.925781 5.087890 51.063168 8.107644 2.471410 -34.228519 8.134766 -22.636721 2.000000 -2.000000 0.000000 -103.242188 41.855469 -42.373047 -53.919277 -1.615711 -2.092941 9.716487 62.346863 1.975415 -2.000000 2.000000 0.000000 70.029297 -36.025391 20.097656 78.303116 0.638637 -2.785872 -34.920086 -52.652386 26.878202 -45.892593 7.557436 -0.568411 23.890699 -4.833751 -2.286624 -11.249241 5.232719 -3.632417 4.289896 -3.168699 -15.634476 23.418228 5.288537 1.779179 -8.047602 -2.764518 0.729430 
9.992354 48.567394 -14.012574 -9.365235 -11.806641 130.566406 26.834465 -18.827528 0.728836 -23.339844 8.398438 4.501953 51.063168 8.107644 2.471410 -32.812500 7.958983 -22.039663 2.000000 -2.000000 0.000000 -105.029297 43.828125 -43.694412 -55.138332 -1.299193 -2.033177 10.895078 61.509800 1.348259 -2.000000 2.000000 0.000000 68.339844 -36.093754 23.974609 81.293648 0.526165 -2.870603 -35.458763 -52.192245 27.906147 -43.073521 6.630455 -2.642170 23.187635 -4.833873 -2.967082 -8.544414 4.009607 -4.029710 5.434173 -4.645121 -16.333143 27.272970 4.049530 2.306778 5.207281 -1.061856 0.165027 
12.098726 48.055317 -16.411165 -8.603516 -10.966796 129.734467 27.464878 -17.429052 -0.035016 -23.193361 7.695313 4.101563 51.063168 8.107644 2.471410 -31.308594 7.246093 -21.131580 2.000000 -2.000000 0.000000 -101.914055 42.841797 -38.216015 -54.435112 -1.367436 -2.029196 10.438672 60.850208 -0.796543 -2.000000 2.000000 0.000000 68.261719 -36.191402 24.228514 81.293648 0.526165 -2.870603 -35.500603 -52.986137 28.826782 -39.810226 6.181071 -3.568271 27.082556 -4.677858 -3.266768 -10.043041 5.983663 -4.782367 1.493695 -5.721927 -15.759492 37.313389 4.001092 2.974211 11.835833 -6.936559 2.763133 
14.432048 49.441864 -18.968061 -7.675781 -9.931641 129.079544 27.965155 -15.868930 -1.060959 -23.232422 6.816406 3.291016 51.063168 8.107644 2.471410 -29.990236 6.406250 -19.482424 2.000000 -2.000000 0.000000 -96.943359 40.458984 -29.882814 -52.329437 -1.561194 -2.164572 9.555561 60.245178 -3.218242 -2.000000 2.000000 0.000000 70.214844 -37.587891 21.347656 79.534706 0.601900 -2.827109 -34.990959 -54.572399 30.044998 -33.972340 5.614922 -3.053695 27.072870 -4.668038 -3.302649 -10.083861 7.015606 -5.157880 -5.778377 -6.566210 -15.826125 49.941208 3.193274 3.902513 18.311394 -15.754446 12.289124 
16.872881 50.812645 -21.605724 -6.767578 -8.925781 128.455521 28.642212 -14.062105 -2.159074 -23.251955 5.771485 2.646485 51.063168 8.107644 2.471410 -28.398439 4.882813 -17.353518 2.000000 -2.000000 0.000000 -91.699219 36.289066 -20.863359 -50.585796 -1.745374 -1.967736 8.245123 59.656937 -6.140055 -2.000000 2.000000 0.000000 72.285156 -38.847656 18.046877 78.479172 0.639202 -2.795617 -34.970638 -55.755611 30.693073 -26.890352 5.233376 -2.500025 24.081011 -4.902861 -2.490365 -8.813287 7.715146 -4.821806 -13.226526 -6.986598 -15.510004 58.181240 2.529173 4.095380 22.428596 -20.131981 20.476126 
19.357105 52.025875 -24.267111 -6.035156 -7.890625 128.066406 29.162746 -12.179292 -3.380929 -23.281252 4.892579 1.835938 51.063168 8.107644 2.471410 -26.777346 2.089844 -13.769531 2.000000 -2.000000 0.000000 -87.187500 30.927734 -13.144531 -48.815685 -1.681188 -1.873705 6.324484 58.920231 -9.578201 -2.000000 2.000000 0.000000 74.238281 -41.093746 14.993582 78.655495 0.640332 -2.815108 -34.408138 -56.234684 29.839815 -19.075922 4.978823 -1.408731 18.787954 -5.097719 -2.089306 -6.010199 7.913547 -4.903615 -20.107206 -6.542916 -14.178617 58.699795 2.499973 4.119698 19.386536 -18.263811 19.154657 
22.058065 52.656116 -26.953257 -5.332032 -7.021485 128.066406 29.534355 -10.365726 -4.810159 -23.125000 4.189453 0.888672 51.063168 8.107644 2.471410 -25.332031 -1.425781 -9.658446 2.000000 -2.000000 0.000000 -83.974609 25.654297 -7.681320 -47.770920 -1.887056 -1.881219 5.814718 58.477757 -10.547956 -2.000000 2.000000 0.000000 77.089844 -43.554688 10.725693 79.007065 0.630583 -2.815672 -33.754364 -56.407501 28.524548 -10.714968 4.557092 -0.360773 13.666459 -5.230090 -1.655346 -5.954285 7.316586 -4.465695 -26.932709 -5.439162 -12.898890 54.841118 2.812438 3.962684 13.121127 -12.785462 14.893212 
24.657425 52.868828 -29.337271 -4.443359 -5.976563 128.573196 29.822811 -7.874106 -5.629282 -22.958984 3.662110 0.147108 51.063168 8.107644 2.471410 -24.287111 -4.199218 -6.630861 2.000000 -2.000000 0.000000 -81.044922 19.472656 -4.371746 -48.298790 -1.888194 -1.900710 6.477898 57.592976 -8.677012 -2.000000 2.000000 0.000000 79.794922 -46.132813 6.640625 80.252075 0.776393 -2.631097 -33.720833 -56.142155 27.338125 -3.754760 4.320334 0.555405 9.778801 -5.731213 -0.952991 -5.431642 6.615754 -3.763172 -31.040266 -4.979061 -12.033538 48.528423 3.398122 3.705658 8.415720 -9.162033 11.664803 
27.143959 52.490681 -31.218260 -3.720703 -5.097656 130.379990 29.934462 -6.719673 -8.015964 -22.773439 4.003906 -0.859375 51.063168 8.107644 2.471410 -23.310547 -5.800781 -4.179688 2.000000 -2.000000 0.000000 -78.310547 12.802733 -4.208984 -49.873783 -1.982195 -2.003114 7.534337 57.444000 -4.632710 -2.000000 2.000000 0.000000 80.791016 -48.300777 5.263671 83.228630 0.480242 -2.922150 -35.591965 -54.828815 28.097940 -0.312263 4.546137 2.724604 13.509267 -5.264395 -1.567712 -7.716850 3.674324 -2.828620 -32.044666 -5.271500 -12.791835 40.091835 3.960808 3.010726 7.529468 -8.102063 8.952682 
30.243103 51.655605 -33.371532 -3.007812 -4.394531 133.622299 29.704660 -5.575384 -11.033134 -22.578127 4.697266 -2.167969 51.063168 8.107644 2.471410 -22.480469 -7.382812 -1.583286 2.000000 -2.000000 0.000000 -76.484375 8.388671 -5.234375 -52.337521 -1.909888 -2.105118 8.595142 56.895885 -2.026729 -2.000000 2.000000 0.000000 79.326172 -50.332031 6.691703 88.329102 0.290898 -3.030883 -38.372196 -52.779827 29.968367 4.470962 5.418403 3.190144 14.416702 -5.195405 -1.452266 -12.053748 0.275665 -1.275183 -31.595270 -5.495358 -14.458766 29.355299 4.462857 2.411966 8.133734 -6.587219 5.870079 
33.147503 50.655087 -35.329704 -2.470703 -3.691406 137.089844 29.387394 -4.676609 -13.950777 -22.197266 5.722657 -3.222656 51.063168 8.107644 2.471410 -21.425783 -8.476563 0.654297 2.000000 -2.000000 0.000000 -75.351563 5.390625 -5.292050 -56.559204 -1.612779 -2.210455 8.903831 55.746120 -2.417046 -2.000000 2.000000 0.000000 77.636719 -53.105469 8.095704 94.815987 0.022990 -3.134387 -41.367870 -49.884373 31.657001 7.682416 6.902887 3.046766 18.140003 -5.132199 -1.417371 -15.516521 -3.050989 -0.623268 -30.445578 -6.092118 -15.766607 18.592609 4.872510 1.738753 8.958769 -5.224524 3.089551 
35.652897 49.630939 -36.947544 -1.767578 -2.988281 139.111328 28.948366 -4.308511 -15.956059 -21.826174 6.250000 -3.818360 51.063168 8.107644 2.471410 -20.195313 -9.101563 1.160565 2.000000 -2.000000 0.000000 -75.185547 3.466797 -3.388672 -61.643604 -1.146984 -2.443172 8.095184 54.576996 -5.326802 -2.000000 2.000000 0.000000 76.494141 -55.800781 7.863018 102.020729 -0.439737 -3.082924 -45.037060 -46.300301 34.241688 9.313334 8.689733 3.166000 24.106228 -4.924806 -1.923645 -15.638058 -5.463332 -0.478019 -28.931168 -6.677569 -17.070566 9.252048 5.113669 0.789845 6.600031 -3.929024 1.298070 
37.471523 48.740715 -37.979404 -1.425781 -2.470703 139.081619 27.738228 -4.309918 -16.295588 -21.113283 6.396484 -3.535156 51.063168 8.107644 2.471410 -18.408205 -8.496094 -0.312501 2.000000 -2.000000 0.000000 -76.289063 2.919922 -1.933096 -64.467743 -1.375748 -2.508092 8.008849 53.668018 -6.638983 -2.000000 2.000000 0.000000 78.271484 -59.892578 3.925781 109.042313 -0.731653 -3.109587 -48.170578 -42.759834 35.975677 9.827943 10.073792 3.173105 31.353409 -4.541284 -2.770746 -10.440979 -6.329745 -0.535401 -27.768814 -7.282324 -18.042248 3.622090 5.203218 0.325008 0.198627 -2.464208 0.855271 
38.948654 48.268032 -39.339317 -1.425781 -1.767578 137.851563 26.120161 -4.974905 -15.182390 -20.410158 6.201172 -2.441406 51.063168 8.107644 2.471410 -16.982424 -7.783203 -2.500001 2.000000 -2.000000 0.000000 -78.369141 3.945313 -1.776670 -64.467712 -1.395247 -2.506958 7.180624 53.818089 -6.719912 -2.000000 2.000000 0.000000 82.636719 -63.105469 -3.759766 115.019226 -0.964510 -3.142612 -50.909668 -39.637661 37.229954 7.488937 10.799470 2.223741 39.606125 -4.284415 -2.983843 8.281882 -4.928131 0.052678 -30.618984 -7.906651 -16.704380 16.663736 5.007943 1.111857 -0.305524 -4.639559 -0.363241 
